<?xml version="1.0" standalone="no"?>
<!DOCTYPE svg PUBLIC "-//W3C//DTD SVG 20010904//EN"
 "http://www.w3.org/TR/2001/REC-SVG-20010904/DTD/svg10.dtd">
<svg version="1.0" xmlns="http://www.w3.org/2000/svg"
 width="40px" height="40px" viewBox="0 0 344.000000 344.000000"
 preserveAspectRatio="xMidYMid meet">

<g transform="translate(0.000000,344.000000) scale(0.100000,-0.100000)"
fill="#000000" stroke="none">
<path fill="#fff" d="M1640 3215 c-184 -39 -337 -123 -473 -260 -70 -70 -156 -197 -192
-285 -15 -36 -29 -67 -31 -70 -3 -2 -132 123 -287 277 -155 155 -289 283 -297
284 -8 2 -27 0 -42 -4 -28 -7 -46 -43 -39 -77 1 -8 629 -642 1394 -1407 1266
-1267 1395 -1393 1424 -1393 47 0 70 29 64 80 -2 8 -193 206 -427 440 l-424
425 76 94 c210 258 280 384 328 592 44 190 47 488 6 629 -28 100 -89 227 -145
306 -57 80 -160 182 -231 229 -74 49 -204 109 -284 130 -88 23 -332 29 -420
10z m365 -281 c205 -54 377 -227 443 -444 27 -91 34 -195 23 -335 -18 -207
-67 -351 -167 -491 -62 -86 -183 -234 -192 -234 -4 0 -154 147 -333 326 l-327
327 25 56 c16 36 28 89 34 151 6 52 19 115 30 140 66 149 265 225 405 155 85
-42 184 -162 184 -223 0 -55 55 -116 114 -127 47 -9 111 20 137 62 33 53 23
146 -26 248 -42 89 -156 212 -239 260 -227 132 -501 102 -691 -76 -106 -100
-167 -219 -181 -354 -4 -36 -10 -65 -14 -65 -3 0 -19 13 -34 29 l-28 29 21 81
c63 251 254 441 498 495 82 19 229 14 318 -10z"/>
<path fill="#fff" d="M1057 2025 c-40 -85 -30 -172 29 -230 19 -19 69 -51 110 -71 72 -34
114 -75 114 -112 0 -7 -28 -30 -62 -50 -133 -78 -197 -166 -214 -293 -20 -146
86 -309 232 -355 48 -16 52 -16 98 4 38 17 50 30 67 67 34 77 8 145 -72 185
-62 32 -67 91 -11 125 133 81 199 151 222 235 l10 35 -248 248 c-136 136 -249
247 -253 247 -3 0 -13 -16 -22 -35z"/>
<path fill="#fff" d="M1878 1103 c-65 -98 -162 -265 -232 -398 -47 -92 -114 -167 -173
-196 -73 -36 -188 -34 -265 4 -98 48 -159 141 -177 271 -10 73 -31 105 -83
132 -38 20 -74 17 -118 -7 -51 -29 -70 -65 -70 -136 0 -167 100 -355 243 -457
100 -71 181 -98 312 -103 278 -12 433 97 614 434 73 137 132 236 184 312 l30
43 -100 100 -100 100 -65 -99z"/>
</g>
</svg>
